<?xml version="1.0" encoding="utf-8"?>
<!-- Generator: Adobe Illustrator 17.1.0, SVG Export Plug-In . SVG Version: 6.00 Build 0)  -->
<!DOCTYPE svg PUBLIC "-//W3C//DTD SVG 1.1//EN" "http://www.w3.org/Graphics/SVG/1.1/DTD/svg11.dtd">
<svg version="1.1" id="Слой_1" xmlns="http://www.w3.org/2000/svg" xmlns:xlink="http://www.w3.org/1999/xlink" x="0px" y="0px"
	 viewBox="0 0 253.8 253.8" enable-background="new 0 0 253.8 253.8" xml:space="preserve">
<path fill="#BC4E45" d="M228.8,0H25C11.2,0,0,11.2,0,25v203.8c0,13.8,11.2,25,25,25h203.8c13.8,0,25-11.2,25-25V25
	C253.8,11.2,242.6,0,228.8,0z"/>
<g id="instagram_1_">
	<path fill="#FFFFFF" d="M127.6,65.8c19.9,0,22.2,0.1,30.1,0.4c7.3,0.3,11.2,1.5,13.8,2.6c3.5,1.4,6,3,8.6,5.6
		c2.6,2.6,4.2,5.1,5.6,8.6c1,2.6,2.2,6.6,2.6,13.8c0.4,7.9,0.4,10.2,0.4,30.1s-0.1,22.2-0.4,30.1c-0.3,7.3-1.5,11.2-2.6,13.8
		c-1.4,3.5-3,6-5.6,8.6c-2.6,2.6-5.1,4.2-8.6,5.6c-2.6,1-6.6,2.2-13.8,2.6c-7.9,0.4-10.2,0.4-30.1,0.4s-22.2-0.1-30.1-0.4
		c-7.3-0.3-11.2-1.5-13.8-2.6c-3.5-1.4-6-3-8.6-5.6c-2.6-2.6-4.2-5.1-5.6-8.6c-1-2.6-2.2-6.6-2.6-13.8c-0.4-7.9-0.4-10.2-0.4-30.1
		s0.1-22.2,0.4-30.1c0.3-7.3,1.5-11.2,2.6-13.8c1.4-3.5,3-6,5.6-8.6c2.6-2.6,5.1-4.2,8.6-5.6c2.6-1,6.6-2.2,13.8-2.6
		C105.4,65.9,107.7,65.8,127.6,65.8 M127.6,52.4c-20.2,0-22.8,0.1-30.7,0.4c-7.9,0.4-13.3,1.6-18.1,3.5c-4.9,1.9-9.1,4.4-13.2,8.6
		c-4.1,4.1-6.7,8.3-8.6,13.2c-1.8,4.7-3.1,10.2-3.5,18.1c-0.4,7.9-0.4,10.5-0.4,30.7c0,20.2,0.1,22.8,0.4,30.7
		c0.4,7.9,1.6,13.3,3.5,18.1c1.9,4.9,4.4,9.1,8.6,13.2c4.1,4.1,8.3,6.7,13.2,8.6c4.7,1.8,10.2,3.1,18.1,3.5
		c7.9,0.4,10.5,0.4,30.7,0.4s22.8-0.1,30.7-0.4c7.9-0.4,13.3-1.6,18.1-3.5c4.9-1.9,9.1-4.4,13.2-8.6c4.1-4.1,6.7-8.3,8.6-13.2
		c1.8-4.7,3.1-10.2,3.5-18.1c0.4-7.9,0.4-10.5,0.4-30.7s-0.1-22.8-0.4-30.7c-0.4-7.9-1.6-13.3-3.5-18.1c-1.9-4.9-4.4-9.1-8.6-13.2
		c-4.1-4.1-8.3-6.7-13.2-8.6c-4.7-1.8-10.2-3.1-18.1-3.5C150.4,52.5,147.9,52.4,127.6,52.4L127.6,52.4z"/>
	<path fill="#FFFFFF" d="M127.6,88.6c-21.1,0-38.2,17.1-38.2,38.2s17.1,38.2,38.2,38.2s38.2-17.1,38.2-38.2S148.7,88.6,127.6,88.6z
		 M127.6,151.7c-13.7,0-24.8-11.1-24.8-24.8s11.1-24.8,24.8-24.8s24.8,11.1,24.8,24.8S141.3,151.7,127.6,151.7z"/>
	<circle fill="#FFFFFF" cx="167.4" cy="87.1" r="8.9"/>
</g>
</svg>
