<?xml version="1.0" encoding="utf-8"?>
<!-- Generator: Adobe Illustrator 17.1.0, SVG Export Plug-In . SVG Version: 6.00 Build 0)  -->
<!DOCTYPE svg PUBLIC "-//W3C//DTD SVG 1.1//EN" "http://www.w3.org/Graphics/SVG/1.1/DTD/svg11.dtd">
<svg version="1.1" id="Слой_1" xmlns="http://www.w3.org/2000/svg" xmlns:xlink="http://www.w3.org/1999/xlink" x="0px" y="0px"
	 viewBox="0 0 253.8 253.8" enable-background="new 0 0 253.8 253.8" xml:space="preserve">
<path fill="#BC4E45" d="M228.8,0H25C11.2,0,0,11.2,0,25v203.8c0,13.8,11.2,25,25,25h203.8c13.8,0,25-11.2,25-25V25
	C253.8,11.2,242.6,0,228.8,0z"/>
<path id="vk_x5F_alt_1_" fill-rule="evenodd" clip-rule="evenodd" fill="#FFFFFF" d="M123.6,180.5H135c0,0,3.5-0.4,5.2-2.3
	c1.6-1.7,1.6-5,1.6-5s-0.2-15.4,6.9-17.6c7-2.2,16.1,14.8,25.6,21.4c7.2,5,12.7,3.9,12.7,3.9l25.6-0.4c0,0,13.4-0.8,7-11.3
	c-0.5-0.9-3.7-7.8-19-22c-16-14.9-13.9-12.5,5.4-38.2c11.8-15.7,16.5-25.3,15-29.4c-1.4-3.9-10.1-2.9-10.1-2.9l-28.8,0.2
	c0,0-2.1-0.3-3.7,0.7c-1.5,0.9-2.5,3.1-2.5,3.1s-4.6,12.1-10.6,22.5c-12.8,21.8-18,22.9-20.1,21.6c-4.9-3.2-3.7-12.7-3.7-19.4
	c0-21.1,3.2-29.9-6.2-32.2c-3.1-0.8-5.4-1.3-13.4-1.3c-10.3-0.1-19,0-23.9,2.4c-3.3,1.6-5.8,5.2-4.3,5.4c1.9,0.3,6.2,1.2,8.5,4.3
	c3,4,2.8,13,2.8,13s1.7,24.8-4,27.9c-3.9,2.1-9.2-2.2-20.6-22c-5.9-10.1-10.3-21.3-10.3-21.3s-0.9-2.1-2.4-3.2
	c-1.8-1.4-4.4-1.8-4.4-1.8l-27.4,0.2c0,0-4.1,0.1-5.6,1.9c-1.3,1.6-0.1,4.9-0.1,4.9s21.4,50.1,45.7,75.4
	C98.3,182,123.6,180.5,123.6,180.5L123.6,180.5L123.6,180.5z"/>
</svg>
