<?xml version="1.0" encoding="utf-8"?>
<!-- Generator: Adobe Illustrator 17.1.0, SVG Export Plug-In . SVG Version: 6.00 Build 0)  -->
<!DOCTYPE svg PUBLIC "-//W3C//DTD SVG 1.1//EN" "http://www.w3.org/Graphics/SVG/1.1/DTD/svg11.dtd">
<svg version="1.1" id="Слой_1" xmlns="http://www.w3.org/2000/svg" xmlns:xlink="http://www.w3.org/1999/xlink" x="0px" y="0px"
	 viewBox="0 0 368.5 56.7" enable-background="new 0 0 368.5 56.7" xml:space="preserve">
<g>
	<path fill="#272624" d="M3.5,42.2V12.1c0-1.5,0.5-2,2-2h5.4c1.5,0,2,0.5,2,2v10.7l0.7,0H14l6.9-10.9c0.9-1.5,1.4-1.8,3.8-1.8h5.5
		c1.4,0,1.9,0.9,1.2,2.1l-8.7,13.9c1.2,0.9,2.1,2.1,2.9,3.7l6.3,12c0.7,1.3,0.3,2.4-1.2,2.4h-5.2c-2.5,0-3.4-0.3-4.2-2l-4.2-8.6
		c-0.8-1.6-1.5-2.4-3.3-2.4h-0.9v11c0,1.5-0.5,2-2,2H5.5C3.9,44.2,3.5,43.7,3.5,42.2z"/>
	<path fill="#272624" d="M39.3,42.2l3.6-8.1l-10.2-22c-0.6-1.3-0.3-2,1.2-2h5.7c2.3,0,3,0.1,3.7,1.8l4.7,10.7l4.4-10.7
		c0.7-1.6,1.2-1.8,3.4-1.8h5.7c1.4,0,1.6,0.7,1,2L49.7,42.4c-0.6,1.5-1.2,1.8-3.3,1.8h-6.1C38.9,44.2,38.8,43.4,39.3,42.2z"/>
	<path fill="#272624" d="M65.4,42.2V12.1c0-1.5,0.5-2,2-2h24c1.5,0,2,0.5,2,2v30.1c0,1.5-0.5,2-2,2H86c-1.5,0-2.1-0.5-2.1-2V18.5
		h-9.1v23.7c0,1.5-0.5,2-2,2h-5.4C65.9,44.2,65.4,43.7,65.4,42.2z"/>
	<path fill="#272624" d="M98.5,42.2V12.1c0-1.5,0.5-2,2-2h5.4c1.5,0,2,0.5,2,2v8.2c0,5.3-0.3,6.8-1.8,11.9h0.3
		c1.9-4.8,2.5-6.5,4.6-10l6.6-11.2c0.4-0.7,0.9-1,2-1h5.8c1.5,0,2,0.5,2,2.1v30.1c0,1.5-0.5,2-2,2H120c-1.5,0-2.1-0.5-2.1-2.1v-8.2
		c0-5.3,0.5-6.7,1.8-11.9h-0.4c-1.8,4.9-2.4,6.3-4.5,9.9l-6.6,11.3c-0.4,0.7-0.9,1-2,1h-5.8C99,44.2,98.5,43.7,98.5,42.2z"/>
	<path fill="#272624" d="M139.8,42.2V18.5h-7.2c-1.5,0-2-0.5-2-2v-4.3c0-1.5,0.5-2,2-2h23.8c1.5,0,2,0.5,2,2v4.3c0,1.5-0.5,2-2,2
		h-7.2v23.7c0,1.5-0.5,2-2,2h-5.4C140.3,44.2,139.8,43.7,139.8,42.2z"/>
	<path fill="#272624" d="M161.7,42.2V12.1c0-1.5,0.5-2,2-2h5.4c1.5,0,2,0.5,2,2v8.2h5.9c7.4,0,12.3,4.3,12.3,11.9
		c0,7.6-4.9,12-12.4,12h-13.2C162.1,44.2,161.7,43.7,161.7,42.2z M175.9,35.8c2.3,0,3.6-1.4,3.6-3.6c0-2.1-1.3-3.5-3.6-3.5h-4.8v7.1
		H175.9z"/>
	<path fill="#272624" d="M201.5,42.2V12.1c0-1.5,0.5-2,2-2h5.4c1.5,0,2,0.5,2,2v23.7h6.1V12.1c0-1.5,0.5-2,2.1-2h5.4
		c1.5,0,2,0.5,2,2v23.7h6.1V12.1c0-1.5,0.5-2,2.1-2h5.4c1.5,0,2.1,0.5,2.1,2v30.1c0,1.5-0.5,2-2.1,2h-36.7
		C202,44.2,201.5,43.7,201.5,42.2z"/>
	<path fill="#272624" d="M247.3,42.2V12.1c0-1.5,0.5-2,2-2h4.5c1.6,0,2.3,0.2,2.8,1.5l7.9,15.5l7.9-15.5c0.6-1.3,1.1-1.5,2.7-1.5
		h4.8c1.5,0,2.1,0.5,2.1,2v30.1c0,1.5-0.5,2-2.1,2h-5.2c-1.5,0-2-0.5-2-2v-6.9c0-3.2,0.3-6.2,2.1-12.6h-0.5c-0.5,1.6-2.3,6-3.3,8
		l-2.7,5.4c-0.5,1-1,1.3-2.3,1.3h-3.2c-1.3,0-1.8-0.3-2.3-1.3l-2.8-5.4c-1-1.9-2.5-6.2-3-8h-0.5c1.7,6.9,2,9.3,2,12.6v6.9
		c0,1.5-0.5,2-2.1,2h-4.9C247.8,44.2,247.3,43.7,247.3,42.2z"/>
	<path fill="#272624" d="M286.3,31.5v-8.7c0-8.3,5.2-13.4,14.7-13.4c9.5,0,14.7,5.1,14.7,13.4v8.7c0,8.3-5.3,13.4-14.7,13.4
		C291.5,44.9,286.3,39.8,286.3,31.5z M306.3,31.9v-9.5c0-3-1.9-4.6-5.2-4.6c-3.4,0-5.3,1.6-5.3,4.6v9.5c0,3,1.9,4.6,5.3,4.6
		C304.4,36.5,306.3,34.9,306.3,31.9z"/>
	<path fill="#272624" d="M326.9,42.2V18.5h-7.2c-1.5,0-2-0.5-2-2v-4.3c0-1.5,0.5-2,2-2h23.8c1.5,0,2,0.5,2,2v4.3c0,1.5-0.5,2-2,2
		h-7.2v23.7c0,1.5-0.5,2-2,2h-5.4C327.4,44.2,326.9,43.7,326.9,42.2z"/>
</g>
<rect x="351.5" y="3.1" fill="none" width="13.6" height="53.6"/>
<text transform="matrix(1 0 0 1 351.4631 44.1627)" fill="#272624" font-family="'Panton-BlackCaps'" font-size="48">|</text>
</svg>
