<?xml version="1.0" encoding="utf-8"?>
<!-- Generator: Adobe Illustrator 17.1.0, SVG Export Plug-In . SVG Version: 6.00 Build 0)  -->
<!DOCTYPE svg PUBLIC "-//W3C//DTD SVG 1.1//EN" "http://www.w3.org/Graphics/SVG/1.1/DTD/svg11.dtd">
<svg version="1.1" id="Слой_1" xmlns="http://www.w3.org/2000/svg" xmlns:xlink="http://www.w3.org/1999/xlink" x="0px" y="0px"
	 viewBox="746.9 317 533.8 126.8" enable-background="new 746.9 317 533.8 126.8" xml:space="preserve">
<g>
	<path fill="#272624" d="M746.9,436.3V324.8c0-5.6,1.9-7.4,7.4-7.4h20c5.6,0,7.4,1.9,7.4,7.4v87.9h22.6v-87.9c0-5.6,1.9-7.4,7.8-7.4
		h20c5.6,0,7.4,1.9,7.4,7.4v87.9h22.6v-87.9c0-5.6,1.9-7.4,7.8-7.4h20c5.6,0,7.8,1.9,7.8,7.4v111.6c0,5.6-1.9,7.4-7.8,7.4H754
		C748.8,443.8,746.9,441.9,746.9,436.3z"/>
	<path fill="#272624" d="M916.7,436.3V324.8c0-5.6,1.9-7.4,7.4-7.4h16.7c5.9,0,8.5,0.7,10.4,5.6l29.3,57.5l29.3-57.5
		c2.2-4.8,4.1-5.6,10-5.6h17.8c5.6,0,7.8,1.9,7.8,7.4v111.6c0,5.6-1.9,7.4-7.8,7.4h-19.3c-5.6,0-7.4-1.9-7.4-7.4v-25.6
		c0-11.9,1.1-23,7.8-46.7h-1.9c-1.9,5.9-8.5,22.2-12.2,29.7l-10,20c-1.9,3.7-3.7,4.8-8.5,4.8h-11.9c-4.8,0-6.7-1.1-8.5-4.8l-10.4-20
		c-3.7-7-9.3-23-11.1-29.7h-1.9c6.3,25.6,7.4,34.5,7.4,46.7v25.6c0,5.6-1.9,7.4-7.8,7.4h-18.2C918.6,443.8,916.7,441.9,916.7,436.3z
		"/>
	<path fill="#272624" d="M1061.3,396.7v-32.3c0-30.8,19.3-49.7,54.5-49.7c35.2,0,54.5,18.9,54.5,49.7v32.3
		c0,30.8-19.6,49.7-54.5,49.7C1080.6,446.3,1061.3,427.4,1061.3,396.7z M1135.4,398.2v-35.2c0-11.1-7-17.1-19.3-17.1
		c-12.6,0-19.6,5.9-19.6,17.1v35.2c0,11.1,7,17.1,19.6,17.1C1128.4,415.2,1135.4,409.3,1135.4,398.2z"/>
	<path fill="#272624" d="M1211.8,436.3v-87.9h-26.7c-5.6,0-7.4-1.9-7.4-7.4v-15.9c0-5.6,1.9-7.4,7.4-7.4h88.2c5.6,0,7.4,1.9,7.4,7.4
		v15.9c0,5.6-1.9,7.4-7.4,7.4h-26.7v87.9c0,5.6-1.9,7.4-7.4,7.4h-20C1213.6,443.8,1211.8,441.9,1211.8,436.3z"/>
</g>
</svg>
