<?xml version="1.0" encoding="utf-8"?>
<!-- Generator: Adobe Illustrator 17.1.0, SVG Export Plug-In . SVG Version: 6.00 Build 0)  -->
<!DOCTYPE svg PUBLIC "-//W3C//DTD SVG 1.1//EN" "http://www.w3.org/Graphics/SVG/1.1/DTD/svg11.dtd">
<svg version="1.1" id="Слой_1" xmlns="http://www.w3.org/2000/svg" xmlns:xlink="http://www.w3.org/1999/xlink" x="0px" y="0px"
	 viewBox="0 162.9 1366 337" enable-background="new 0 162.9 1366 337" xml:space="preserve">
<g>
	<path fill="#FFF4E0" d="M0,474V188.7c0-14.3,4.9-18.9,18.9-18.9h51.2c14.3,0,18.9,4.9,18.9,18.9v224.9h57.8V188.7
		c0-14.3,4.9-18.9,20-18.9H218c14.3,0,18.9,4.9,18.9,18.9v224.9h57.8V188.7c0-14.3,4.9-18.9,20-18.9h51.2c14.3,0,20,4.9,20,18.9
		v285.6c0,14.3-4.9,18.9-20,18.9H18.2C4.9,493.2,0,488.4,0,474z"/>
	<path fill="#FFF4E0" d="M434.5,474V188.7c0-14.3,4.9-18.9,18.9-18.9h42.7c15.1,0,21.8,1.8,26.6,14.3l75,147.1l75-147.1
		c5.6-12.3,10.5-14.3,25.6-14.3h45.6c14.3,0,20,4.9,20,18.9v285.6c0,14.3-4.9,18.9-20,18.9h-49.4c-14.3,0-18.9-4.9-18.9-18.9v-65.5
		c0-30.5,2.8-58.9,20-119.5h-4.9c-4.9,15.1-21.8,56.8-31.2,76l-25.6,51.2c-4.9,9.5-9.5,12.3-21.8,12.3h-30.5
		c-12.3,0-17.1-2.8-21.8-12.3l-26.6-51.2c-9.5-17.9-23.8-58.9-28.4-76H500c16.1,65.5,18.9,88.3,18.9,119.5v65.5
		c0,14.3-4.9,18.9-20,18.9h-46.6C439.4,493.2,434.5,488.4,434.5,474z"/>
	<path fill="#FFF4E0" d="M804.6,372.7v-82.7c0-78.8,49.4-127.2,139.5-127.2s139.5,48.4,139.5,127.2v82.7
		c0,78.8-50.2,127.2-139.5,127.2C853.9,499.6,804.6,451.3,804.6,372.7z M994.2,376.6v-90.1c0-28.4-17.9-43.8-49.4-43.8
		c-32.2,0-50.2,15.1-50.2,43.8v90.1c0,28.4,17.9,43.8,50.2,43.8C976.3,420.1,994.2,405,994.2,376.6z"/>
	<path fill="#FFF4E0" d="M1189.7,474V249.1h-68.3c-14.3,0-18.9-4.9-18.9-18.9v-40.7c0-14.3,4.9-18.9,18.9-18.9h225.7
		c14.3,0,18.9,4.9,18.9,18.9v40.7c0,14.3-4.9,18.9-18.9,18.9h-68.3V474c0,14.3-4.9,18.9-18.9,18.9h-51.2
		C1194.3,493.2,1189.7,488.4,1189.7,474z"/>
</g>
</svg>
