<svg xmlns="http://www.w3.org/2000/svg" xmlns:xlink="http://www.w3.org/1999/xlink" xmlns:fi="http://pattern.flaticon.com/" x="0" y="0" width="1400" height="621" viewBox="0 0 1400 621"><rect x="0px" y="0px" width="100%" height="100%" opacity="0.51" fill="#f8b500"/><defs><g transform="matrix(0.11718741804361343 0 0 0.11718741804361343 308 168.00000014648435)" id="L1_38"><path d="m461.285156 226.507812-76.492187-5.464843-50.554688-84.214844-25.273437-42.167969v-11.679687c.007812-12.675781-10.261719-22.957031-22.9375-22.964844-2.839844-.003906-5.65625.523437-8.300782 1.546875l-72.6875 28.039062 5.492188-18.433593c4.335938-15.496094-2.699219-31.921875-16.90625-39.476563l-57.035156-30.640625c-4.148438-2.226562-9.316406-.804687-11.742188 3.230469l-83.660156 133.96875-1.765625-1.023438c-4.226563-2.429687-9.621094-.96875-12.046875 3.257813-.054688.089844-.101562.179687-.152344.273437l-26.191406 49.308594c-2.257812 4.257813-.683594 9.535156 3.53125 11.867188l318.535156 176.550781c1.308594.722656 2.777344 1.101563 4.273438 1.101563h131.664062c29.238282-.027344 52.9375-23.722657 52.964844-52.964844v-45.65625c-.09375-28.609375-22.183594-52.328125-50.714844-54.457032zm-94.941406-1.890624-10.082031 3.363281-78.988281-102.699219 20.304687-15.246094zm-230.691406-204.03125 49.621094 26.632812c6.878906 3.636719 10.316406 11.550781 8.28125 19.058594l-7.292969 24.578125-50.671875-30.386719-17.546875-10.53125zm-52.265625 84.25 4.519531-7.0625 29.042969 21.601562c14.78125 11.097656 22.328125 29.375 19.683593 47.671875l-1.101562 25.511719-78.894531-45.472656zm375.648437 257.097656h-129.394531l-308.964844-171.257813 17.839844-33.542969 292.519531 168.3125c1.34375.773438 2.863282 1.179688 4.414063 1.175782h158.894531c0 19.5-15.808594 35.3125-35.308594 35.3125zm35.308594-52.96875h-156.539062l-60.546876-34.859375 20.355469-20.753907c3.363281-3.527343 3.230469-9.117187-.300781-12.480468-3.457031-3.296875-8.910156-3.242188-12.304688.121094l-23.550781 24.011718-33.546875-19.332031 33.644532-26.914063c3.804687-3.046874 4.421874-8.605468 1.375-12.414062-3.046876-3.804688-8.605469-4.421875-12.410157-1.375l-39.046875 31.242188-28.742187-16.527344 43.609375-36.34375c3.75-3.121094 4.257812-8.6875 1.140625-12.4375-3.121094-3.75-8.691407-4.257813-12.441407-1.140625l-48.621093 40.527343-13.648438-7.855468 1.429688-33.886719c3.269531-24.414063-6.960938-48.679687-26.71875-63.382813l-30.078125-22.363281 11.363281-17.839843 78.140625 46.882812c1.050781.605469 2.214844.980469 3.417969 1.105469.210937 0 .394531.070312.609375.085937.210937.019532.34375.0625.511718.0625 1.089844.003906 2.175782-.195312 3.195313-.589844l89.421875-34.488281c1.636719-.625 3.46875-.410156 4.917969.574219 1.453125.996094 2.316406 2.648438 2.304687 4.414062v9.710938l-31.78125 23.832031c-3.898437 2.929688-4.683594 8.464844-1.753906 12.359375.019531.027344.039062.054688.058594.078125l88.277344 114.761719c2.28125 2.988281 6.214843 4.191406 9.78125 2.992188l24.8125-8.273438 79.328124 5.667969c19.304688 1.429687 34.261719 17.46875 34.335938 36.828125zm0 0"/><path d="m52.964844 256h-44.136719c-4.875 0-8.828125 3.953125-8.828125 8.828125s3.953125 8.828125 8.828125 8.828125h44.136719c4.875 0 8.828125-3.953125 8.828125-8.828125s-3.953125-8.828125-8.828125-8.828125zm0 0"/><path d="m0 317.792969c0 4.875 3.953125 8.828125 8.828125 8.828125h114.757813c4.875 0 8.828124-3.953125 8.828124-8.828125s-3.953124-8.828125-8.828124-8.828125h-114.757813c-4.875 0-8.828125 3.953125-8.828125 8.828125zm0 0"/><path d="m220.691406 361.933594h-211.863281c-4.875 0-8.828125 3.949218-8.828125 8.824218s3.953125 8.828126 8.828125 8.828126h211.863281c4.875 0 8.824219-3.953126 8.824219-8.828126s-3.949219-8.824218-8.824219-8.824218zm0 0"/></g><path d="M448.698,135.905L448.698,135.905c-6.621,0.123-13.191,1.173-19.52,3.12c-3.435,1.115-5.696,4.393-5.52,8v20.88    c-15.503,10.063-33.78,14.989-52.24,14.08c-5.36,0-9.6,0-12.08-0.56l-52.32-49.52c-3.999-3.394-9.168-5.088-14.4-4.72    c-28.4,0-93.28,32-127.52,52.08c-40.64,24-123.04,37.92-123.84,38.08l-1.68,0.48c-41.68,17.28-42.72,51.68-37.2,68.16    c11.52,59.12,141.84,62.56,171.52,62.56h285.76c4.418,0,8-3.582,8-8v-42.64c4.172-4.813,6.939-10.68,8-16.96    c0.03-0.399,0.03-0.801,0-1.2v-120C475.418,144.705,465.258,135.905,448.698,135.905z M129.898,211.985l10.56,19.2    c2.209,3.866,7.134,5.209,11,3c3.866-2.209,5.209-7.134,3-11l-9.36-17.04c6.8-2.64,13.28-5.44,19.28-8.48l13.36,20.4    c2.369,3.73,7.313,4.833,11.042,2.464s4.833-7.313,2.464-11.042c-0.047-0.075-0.096-0.148-0.146-0.221l-12.64-19.28    c5.76-3.28,11.68-6.56,17.84-9.76l16,23.36c2.33,3.754,7.262,4.909,11.016,2.579c3.754-2.33,4.909-7.262,2.579-11.016    c-0.146-0.236-0.305-0.464-0.475-0.683l-15.04-21.6c7.12-3.52,14.32-6.96,21.28-10.08l18.72,27.2    c2.452,3.676,7.419,4.668,11.095,2.216c3.676-2.452,4.668-7.419,2.216-11.095c-0.036-0.054-0.073-0.108-0.11-0.161l-16.64-24    c14.385-6.767,29.747-11.222,45.52-13.2c1.141-0.155,2.299-0.155,3.44,0l32,30c-31.585,42.355-75.607,73.791-125.92,89.92    c-22.134-7.209-44.945-12.141-68.08-14.72c-20.574-1.445-40.17-9.339-56-22.56C93.898,222.865,112.058,218.065,129.898,211.985z     M44.778,233.185c2,0,7.12-1.28,14.16-2.72c19.805,20.114,46.248,32.341,74.4,34.4c26.32,1.28,81.84,19.04,120,32h-35.04    c-144.88,0.56-188.4-10.88-201.36-18.88C15.098,270.785,12.538,246.705,44.778,233.185z M451.658,332.465h-273.92    c-35.2,0.48-119.12-5.04-149.2-32.56c24.96,6.64,76.88,13.52,190.24,13.52c26.56,0,53.36,0,78.8-0.96    c24-0.56,46.64-1.28,66.88-2.08c49.12-1.84,83.44-3.84,83.84-3.92c1.119,0.075,2.241,0.075,3.36,0V332.465z M459.658,279.025    c-0.48,2.32-2.96,11.52-12,11.52c-0.56,0-29.92,1.76-73.04,3.52c15.44-54.88,64.4-73.04,85.04-78.24V279.025z M357.818,294.705    c-18.16,0.64-38.16,1.28-59.12,1.76c-7.12-2.72-37.36-13.92-71.28-24.8c44.328-18.485,82.971-48.378,112-86.64l10.48,10.08    c1.193,1.119,2.701,1.845,4.32,2.08c5.597,0.728,11.236,1.076,16.88,1.04c19.2,0,46.16-3.68,65.6-21.12    c1.676-1.512,2.635-3.663,2.64-5.92v-18.32c2.95-0.6,5.95-0.922,8.96-0.96c10.96,0,11.12,4.8,11.2,8l0.16,39.52    C438.458,204.465,374.378,225.105,357.818,294.705z" transform="matrix(0.1261349469423294 0 0 0.1261349469423294 98 209.0000000307947)" id="L1_39"/><path d="M405.5,118.021c-0.094-0.099-0.191-0.196-0.29-0.29l-84.16-74.8c-0.768-0.7-1.664-1.243-2.64-1.6l-60.88-21.76    c-4.153-1.508-8.742,0.637-10.25,4.79c-0.272,0.749-0.43,1.534-0.47,2.33c0,1.76-2.64,42.32-43.2,42.96    c-40.8-0.64-43.36-41.2-43.44-42.96c-0.236-4.412-4.004-7.797-8.416-7.561c-0.758,0.041-1.507,0.189-2.224,0.441l-60.8,22    c-0.976,0.357-1.872,0.9-2.64,1.6l-83.6,74.56c-3.203,3.043-3.333,8.107-0.29,11.31c0.094,0.099,0.191,0.196,0.29,0.29    l66.56,67.28v184c0,4.418,3.582,8,8,8h253.6c4.418,0,8-3.582,8-8v-184l66.56-67.28C408.413,126.288,408.543,121.225,405.5,118.021    z M338.41,173.811v-37.12c0-4.418-3.582-8-8-8s-8,3.582-8,8v235.52H84.73v-235.52c0-4.418-3.582-8-8-8s-8,3.582-8,8v37.2    l-49.2-49.84l76.16-68.16l50.08-18.08c6.204,31.966,37.147,52.851,69.113,46.647c23.607-4.582,42.065-23.04,46.647-46.647    l50.08,18.08l75.92,68.16L338.41,173.811z" transform="matrix(0.14716704189777374 0 0 0.14716704189777374 210 266.99999917362254)" id="L1_40"/><g transform="matrix(0.20302781462669373 0 0 0.20302781462669373 180 89.00000123918346)" id="L1_41"><path d="M147.763,44.074c12.801,0,23.858-8.162,27.83-20.169c-7.578,2.086-17.237,3.345-27.83,3.345   c-10.592,0-20.251-1.259-27.828-3.345C123.905,35.911,134.961,44.074,147.763,44.074z"/><path d="M295.158,58.839c-0.608-1.706-1.873-3.109-3.521-3.873l-56.343-26.01c-11.985-4.06-24.195-7.267-36.524-9.611   c-0.434-0.085-0.866-0.126-1.292-0.126c-3.052,0-5.785,2.107-6.465,5.197c-4.502,19.82-22.047,34.659-43.251,34.659   c-21.203,0-38.749-14.838-43.25-34.659c-0.688-3.09-3.416-5.197-6.466-5.197c-0.426,0-0.858,0.041-1.292,0.126   c-12.328,2.344-24.538,5.551-36.542,9.611L3.889,54.965c-1.658,0.764-2.932,2.167-3.511,3.873   c-0.599,1.726-0.491,3.589,0.353,5.217l24.46,48.272c1.145,2.291,3.474,3.666,5.938,3.666c0.636,0,1.281-0.092,1.917-0.283   l27.167-8.052v161.97c0,3.678,3.001,6.678,6.689,6.678h161.723c3.678,0,6.67-3.001,6.67-6.678V107.66l27.186,8.052   c0.636,0.191,1.28,0.283,1.915,0.283c2.459,0,4.779-1.375,5.94-3.666l24.469-48.272C295.629,62.428,295.747,60.565,295.158,58.839z   "/></g><g transform="matrix(0.1171875 0 0 0.1171875 88.00000082969666 14)" id="L1_42"><path d="M235.439,43.973h41.705c4.466,0,8.084-3.62,8.084-8.084c0-4.465-3.618-8.084-8.084-8.084h-41.705     c-4.466,0-8.084,3.62-8.084,8.084C227.355,40.353,230.973,43.973,235.439,43.973z"/><path d="M496.713,192.694L468.896,78.087c-0.276-1.134-7.042-27.908-33.642-39.213C416,30.692,355.108,7.575,339.862,1.802     C338.473,0.677,336.705,0,334.778,0h-1.158H178.382c-0.259,0-0.516,0.014-0.774,0.039c-0.111,0.011-0.22,0.03-0.33,0.045     c-0.141,0.019-0.282,0.038-0.423,0.065c-0.131,0.025-0.26,0.058-0.389,0.089c-0.115,0.028-0.231,0.056-0.346,0.088     c-0.134,0.039-0.264,0.084-0.396,0.129c-0.067,0.024-0.135,0.041-0.202,0.066c-3.14,1.187-77.172,29.171-98.776,38.353     C51.172,49.744,43.936,74.9,43.171,77.83c0,0.001,0,0.002-0.001,0.003c-0.014,0.055-0.025,0.098-0.036,0.137     c-0.014,0.053-0.024,0.095-0.029,0.115L23.337,159.53c0,0,0,0,0,0.001l-8.05,33.164c-0.951,3.915,1.127,7.932,4.872,9.42     l79.47,31.57v237.366v32.865c0,4.466,3.619,8.084,8.084,8.084h296.573c4.466,0,8.084-3.618,8.084-8.084v-32.865V317.128     c0-4.465-3.618-8.084-8.084-8.084c-4.466,0-8.084,3.62-8.084,8.084v145.838H197.52c-4.466,0-8.084,3.619-8.084,8.084     c0,4.465,3.618,8.084,8.084,8.084h198.683v16.697H115.799v-16.697h54.774c4.466,0,8.084-3.62,8.084-8.084     c0-4.466-3.618-8.084-8.084-8.084h-54.774v-234.77V193.53v-62.644c0-1.475-0.403-2.921-1.166-4.183L73.863,59.278     c2.632-2.115,5.683-4.024,9.21-5.523c16.551-7.034,66.181-25.968,87.853-34.198c5.199,47.777,42.306,86.201,85.655,86.201     c43.22,0,80.24-38.198,85.611-85.779c22.215,8.44,70.465,26.859,86.739,33.775c3.527,1.499,6.577,3.408,9.21,5.523     l-40.769,67.424c-0.763,1.262-1.166,2.709-1.166,4.183v62.644v34.667v61.985c0,4.466,3.619,8.084,8.084,8.084     c4.466,0,8.084-3.618,8.084-8.084v-56.498l79.47-31.57C495.585,200.626,497.663,196.609,496.713,192.694z M99.631,216.286     L32.658,189.68l4.156-17.12l62.816,26.345V216.286z M99.631,133.139v48.233l-58.954-24.725l18.134-74.711     c0.023-0.091,1.124-4.26,4.094-9.534L99.631,133.139z M256.58,89.589c-31.953,0-66.037-29.165-69.775-73.421h139.552     C322.617,60.425,288.533,89.589,256.58,89.589z M412.372,133.139L449.099,72.4c1.945,3.453,3.09,6.431,3.65,8.091     c0.001,0.005,0.003,0.01,0.005,0.015c0.053,0.157,0.099,0.3,0.142,0.432c0.008,0.025,0.016,0.051,0.024,0.075     c0.033,0.105,0.063,0.199,0.089,0.286c0.011,0.033,0.022,0.07,0.031,0.101c0.022,0.071,0.04,0.134,0.056,0.19     c0.008,0.026,0.016,0.057,0.023,0.08c0.013,0.045,0.023,0.08,0.031,0.112c0.005,0.019,0.013,0.045,0.017,0.06     c0.008,0.028,0.014,0.054,0.015,0.058l18.143,74.748l-58.954,24.725V133.139z M412.372,216.286v-17.381l62.816-26.345     l4.155,17.121L412.372,216.286z"/></g><g transform="matrix(0.1171875 0 0 0.1171875 27 284.00000001464844)" id="L1_43"><path d="m409.601562 162.019531v-93.757812c-.003906-22.15625-10.757812-42.933594-28.847656-55.726563-18.085937-12.796875-41.261718-16.015625-62.152344-8.636718l-45.535156 16.125c-11.039062 3.851562-23.050781 3.851562-34.089844 0l-45.585937-16.125c-20.890625-7.375-44.0625-4.15625-62.148437 8.640624-18.085938 12.792969-28.839844 33.570313-28.84375 55.722657v93.757812c-35.453126 8.113281-102.398438 27.808594-102.398438 60.78125 0 55.425781 195.941406 59.734375 256 59.734375s256-4.308594 256-59.734375c0-32.972656-66.945312-52.667969-102.398438-60.78125zm-290.136718 7.175781c10.816406 2.816407 21.835937 4.777344 32.957031 5.871094 34.40625 3.605469 68.984375 5.300782 103.578125 5.070313 34.59375.230469 69.171875-1.464844 103.578125-5.070313 11.121094-1.09375 22.140625-3.054687 32.957031-5.871094v33.28125c-11.410156 5.246094-61.773437 11.792969-136.535156 11.792969s-125.125-6.546875-136.535156-11.757812zm0-100.933593c0-16.621094 8.070312-32.207031 21.640625-41.804688 13.570312-9.59375 30.957031-12.007812 46.628906-6.464843l45.59375 16.136718c14.710937 5.140625 30.726563 5.140625 45.4375 0l45.5-16.136718c15.671875-5.542969 33.058594-3.128907 46.628906 6.464843 13.570313 9.597657 21.640625 25.183594 21.640625 41.804688v83.046875c-11.410156 5.214844-61.773437 11.761718-136.535156 11.761718s-125.125-6.546874-136.535156-11.761718zm136.535156 197.207031c-164.796875 0-238.933594-24.953125-238.933594-42.667969 0-9.605469 23.039063-28.542969 85.332032-43.246093v26.179687c0 9.269531 8.183593 15.601563 50.023437 20.53125 34.40625 3.609375 68.984375 5.300781 103.578125 5.070313 34.59375.230468 69.171875-1.460938 103.578125-5.070313 41.839844-4.929687 50.023437-11.261719 50.023437-20.53125v-26.179687c62.292969 14.703124 85.332032 33.640624 85.332032 43.246093 0 17.714844-74.128906 42.667969-238.933594 42.667969zm0 0"/><path d="m304.699219 66.703125c3.234375-3.347656 3.1875-8.671875-.101563-11.964844-3.292968-3.289062-8.617187-3.335937-11.964844-.101562-10.058593 9.105469-23.066406 14.277343-36.632812 14.566406-13.574219-.363281-26.578125-5.53125-36.691406-14.585937-3.355469-3.226563-8.675782-3.175782-11.964844.121093-3.285156 3.296875-3.324219 8.621094-.085938 11.964844 13.296876 12.28125 30.644532 19.242187 48.742188 19.566406 18.082031-.332031 35.414062-7.296875 48.699219-19.566406zm0 0"/><path d="m145.066406 77.734375c-4.710937 0-8.53125 3.820313-8.53125 8.535156v34.132813c0 4.710937 3.820313 8.535156 8.53125 8.535156 4.714844 0 8.535156-3.824219 8.535156-8.535156v-34.132813c0-4.714843-3.820312-8.535156-8.535156-8.535156zm0 0"/></g><path d="M491.797,348.594L266.656,229.656V214.64c0.094-0.023,0.188-0.055,0.297-0.078c35.469-8.781,59.281-30.875,59.281-59.281    c0-32.742-26.547-59.281-59.281-59.281c-30.234,0-56.516,22.125-59.109,51.773c-0.078,0.453-0.125,0.922-0.125,1.391    c0,0.055-0.016,0.109-0.016,0.172c0,5.891,4.781,10.664,10.672,10.664s10.672-4.773,10.672-10.664h0.062    c0.859-9.227,5.344-15.844,9.281-19.969c7.281-7.648,17.703-12.031,28.562-12.031c20.922,0,37.938,17.023,37.938,37.945    c0,7.984-3.328,15.305-9.922,21.758c-7.703,7.539-19.156,13.352-33.141,16.812c0,0-16.203,5-16.484,5.102v3.711h-0.016v26.992    L20.219,348.594C8.141,354.812,0,366.5,0,379.906C0,399.844,18.016,416,40.234,416c0.406,0,1.203,0,1.203,0h429.141    c0,0,0.797,0,1.203,0C494,416,512,399.844,512,379.906C512,366.5,503.875,354.812,491.797,348.594z M471.781,394.656h-1.203    H41.438h-1.203c-10.234,0-18.891-6.75-18.891-14.75c0-4.938,3.234-9.562,8.656-12.375l0.094-0.031l0.094-0.062l225.797-119.289    l225.844,119.289l0.094,0.062l0.094,0.031c5.422,2.812,8.656,7.438,8.656,12.375C490.672,387.906,482.016,394.656,471.781,394.656    z" transform="matrix(0.1171875 0 0 0.1171875 295 13)" id="L1_44"/><g transform="matrix(0.1180158481001854 0 0 0.1180158481001854 60 118)" id="L1_45"><path d="m38.496094 76.03125c-40.25 50.761719-49.714844 119.390625-24.710938 179.152344.183594.316406.386719.625.605469.921875.136719.34375.296875.675781.476563 1 .195312.257812.453124.460937.664062.710937.070312.089844.148438.171875.226562.253906 9.140626 11.097657 26.523438 15.308594 47.515626 15.308594 28.710937-1.097656 57.175781-5.691406 84.773437-13.6875 21.445313 17.246094 46.773437 29.007813 73.785156 34.261719 3.945313.5625 7.925781.84375 11.910157.839844 35.363281 0 74.046874-20.515625 108.597656-38.847657 14.453125-8.066406 29.371094-15.285156 44.667968-21.613281 24.046876 10.214844 42.027344 22.300781 49.472657 33.414063 8.628906 11.652344 22.4375 18.3125 36.929687 17.8125 7.773438.164062 15.4375-1.835938 22.132813-5.78125 11.640625-7.363282 19.203125-23.371094 5.539062-46.164063-5.003906-8.105469-11.371093-15.28125-18.816406-21.21875-.242187-.203125-.503906-.386719-.765625-.5625-28.761719-23.367187-72.023438-35.464843-88.492188-39.449219-1.457031-29.378906-16.550781-140.953124-160.238281-163.671874-30.253906-4.96875-61.191406-3.914063-91.035156 3.105468l-3.484375-6.96875c-1.339844-2.683594-4.007812-4.449218-7.003906-4.628906-2.996094-.1796875-5.859375 1.25-7.511719 3.75-1.652344 2.503906-1.847656 5.699219-.507813 8.382812l2.066407 4.113282c-34.125 10.960937-64.296875 31.667968-86.796875 59.566406zm.710937 177.714844c14.683594-5.875 40.023438-15.449219 72.445313-25.179688 4.785156 4.71875 11.550781 11.070313 19.742187 17.988282-42.195312 10.238281-75.003906 12.714843-92.1875 7.191406zm295.273438-12.664063c-36.199219 19.203125-77.21875 41.050781-110.246094 36.226563-25.558594-5.21875-49.414063-16.722656-69.414063-33.472656-8.507812-6.460938-16.683593-13.34375-24.5-20.625 33.605469-9.355469 67.769532-16.566407 102.289063-21.585938 107.808594-15.394531 146.550781-14.269531 151.023437-14.128906 20.40625 4.550781 40.257813 11.304687 59.199219 20.144531-14.425781.554687-28.78125 2.3125-42.914062 5.257813-5.292969 1.085937-10.492188 2.570312-15.5625 4.4375l-.445313.175781c-16.992187 6.738281-33.511718 14.621093-49.4375 23.59375zm152.046875 24.5c-12.234375 6.289063-27.1875 3.320313-36.089844-7.167969-10.164062-13.097656-23.269531-23.621093-38.25-30.71875 20.074219-4.054687 40.71875-4.390624 60.910156-.992187 5.3125 4.417969 9.882813 9.65625 13.53125 15.519531 6.722656 11.207032 6.664063 19.078125-.101562 23.359375zm-293.644532-243.226562c12.46875.023437 24.914063 1.019531 37.226563 2.980469 129.554687 20.464843 144.542969 116.25 146.097656 145.316406-48.914062 1.71875-97.667969 6.511718-145.980469 14.351562-40.117187 5.878906-79.761718 14.613282-118.632812 26.136719-.304688.074219-.605469.164063-.898438.269531-28.597656 8.355469-56.742187 18.195313-84.320312 29.476563-18.910156-52.355469-9.359375-110.769531 25.238281-154.378907 33.273438-41.691406 83.492188-64.152343 141.269531-64.152343zm0 0"/><path d="m106.816406 201.707031c1.078125-.003906 2.152344-.105469 3.207032-.308593l15.191406-2.945313c6.757812-1.277344 12.039062-6.566406 13.304687-13.320313l2.972657-15.480468 20.621093-3.992188c6.261719-1.179687 11.300781-5.820312 12.992188-11.960937.144531-.527344.238281-1.0625.289062-1.605469l.621094-8.007812c1.207031-5.515626-.441406-11.269532-4.386719-15.3125-3.945312-4.042969-9.660156-5.828126-15.207031-4.753907l-9.105469 1.761719 1.679688-8.878906 23.761718-4.601563c10.636719-2.101562 18.757813-10.746093 20.195313-21.496093l1.84375-14.269532c.34375-2.671875-.617187-5.34375-2.582031-7.1875s-4.691406-2.632812-7.335938-2.121094l-71.195312 13.785157c-5.316406 1.035156-9.371094 5.355469-10.070313 10.726562l-3.03125 23.132813-10.25 66.902344c-.9375 4.914062.367188 9.992187 3.554688 13.84375 3.1875 3.855468 7.929687 6.089843 12.929687 6.089843zm10.394532-84.488281 2.660156-20.320312 56.8125-11.019532-.351563 2.675782c-.460937 3.605468-3.15625 6.515624-6.714843 7.253906l-23.761719 4.597656c-6.746094 1.285156-12.019531 6.570312-13.285157 13.320312l-1.679687 8.875c-1.046875 5.46875.683594 11.101563 4.625 15.039063 3.945313 3.933594 9.582031 5.65625 15.050781 4.601563l9.105469-1.773438c-.148437.523438-.246094 1.0625-.285156 1.605469l-.5625 7.109375-20.488281 3.976562c-6.746094 1.289063-12.011719 6.574219-13.289063 13.320313l-2.960937 15.46875-15.160157 2.644531zm0 0"/><path d="m216.410156 155.140625 22.875-4.421875-.523437 9.820312c-.183594 3.441407 1.054687 6.8125 3.421875 9.316407 2.371094 2.507812 5.664062 3.933593 9.109375 3.945312.820312 0 1.632812-.082031 2.4375-.246093l24.472656-4.730469c5.671875-1.101563 9.863281-5.917969 10.171875-11.683594l5.105469-95.03125c.207031-3.871094-1.378907-7.625-4.304688-10.167969-2.921875-2.546875-6.855469-3.605468-10.660156-2.867187l-57.6875 11.171875c-5.316406 1.035156-9.371094 5.355468-10.074219 10.726562l-9.234375 70.167969c-.523437 4.011719.910157 8.035156 3.855469 10.808594 2.945312 2.773437 7.046875 3.960937 11.019531 3.191406zm10.59375-78.988281 49.421875-9.578125-.464843 8.628906-12.152344 2.359375c-4.230469.835938-7.136719 4.742188-6.726563 9.035156.410157 4.292969 4.007813 7.574219 8.320313 7.589844.539062.003906 1.078125-.046875 1.605468-.152344l8.03125-1.558594-.46875 8.660157-14.167968 2.746093c-4.230469.835938-7.140625 4.742188-6.726563 9.035157.410157 4.292969 4.007813 7.574219 8.320313 7.59375.539062-.003907 1.074218-.054688 1.601562-.152344l10.074219-1.949219-1.855469 34.558594-15.949218 3.097656.53125-9.820312c.183593-3.445313-1.054688-6.8125-3.421876-9.320313-2.367187-2.507812-5.660156-3.933593-9.109374-3.941406-.816407-.007813-1.632813.070313-2.433594.234375l-22.4375 4.339844zm0 0"/></g></defs><g fi:class="KUsePattern"><pattern id="pattern_L1_38" width="350" height="350" patternUnits="userSpaceOnUse"><use xlink:href="#L1_38" x="-350" y="-350"/><use xlink:href="#L1_38" x="0" y="-350"/><use xlink:href="#L1_38" x="350" y="-350"/><use xlink:href="#L1_38" x="-350" y="0"/><use xlink:href="#L1_38" x="0" y="0"/><use xlink:href="#L1_38" x="350" y="0"/><use xlink:href="#L1_38" x="-350" y="350"/><use xlink:href="#L1_38" x="0" y="350"/><use xlink:href="#L1_38" x="350" y="350"/></pattern><rect x="0" y="0" width="100%" height="100%" fill="url(#pattern_L1_38)"/></g><g fi:class="KUsePattern"><pattern id="pattern_L1_39" width="350" height="350" patternUnits="userSpaceOnUse"><use xlink:href="#L1_39" x="-350" y="-350"/><use xlink:href="#L1_39" x="0" y="-350"/><use xlink:href="#L1_39" x="350" y="-350"/><use xlink:href="#L1_39" x="-350" y="0"/><use xlink:href="#L1_39" x="0" y="0"/><use xlink:href="#L1_39" x="350" y="0"/><use xlink:href="#L1_39" x="-350" y="350"/><use xlink:href="#L1_39" x="0" y="350"/><use xlink:href="#L1_39" x="350" y="350"/></pattern><rect x="0" y="0" width="100%" height="100%" fill="url(#pattern_L1_39)"/></g><g fi:class="KUsePattern"><pattern id="pattern_L1_40" width="350" height="350" patternUnits="userSpaceOnUse"><use xlink:href="#L1_40" x="-350" y="-350"/><use xlink:href="#L1_40" x="0" y="-350"/><use xlink:href="#L1_40" x="350" y="-350"/><use xlink:href="#L1_40" x="-350" y="0"/><use xlink:href="#L1_40" x="0" y="0"/><use xlink:href="#L1_40" x="350" y="0"/><use xlink:href="#L1_40" x="-350" y="350"/><use xlink:href="#L1_40" x="0" y="350"/><use xlink:href="#L1_40" x="350" y="350"/></pattern><rect x="0" y="0" width="100%" height="100%" fill="url(#pattern_L1_40)"/></g><g fi:class="KUsePattern"><pattern id="pattern_L1_41" width="350" height="350" patternUnits="userSpaceOnUse"><use xlink:href="#L1_41" x="-350" y="-350"/><use xlink:href="#L1_41" x="0" y="-350"/><use xlink:href="#L1_41" x="350" y="-350"/><use xlink:href="#L1_41" x="-350" y="0"/><use xlink:href="#L1_41" x="0" y="0"/><use xlink:href="#L1_41" x="350" y="0"/><use xlink:href="#L1_41" x="-350" y="350"/><use xlink:href="#L1_41" x="0" y="350"/><use xlink:href="#L1_41" x="350" y="350"/></pattern><rect x="0" y="0" width="100%" height="100%" fill="url(#pattern_L1_41)"/></g><g fi:class="KUsePattern"><pattern id="pattern_L1_42" width="350" height="350" patternUnits="userSpaceOnUse"><use xlink:href="#L1_42" x="-350" y="-350"/><use xlink:href="#L1_42" x="0" y="-350"/><use xlink:href="#L1_42" x="350" y="-350"/><use xlink:href="#L1_42" x="-350" y="0"/><use xlink:href="#L1_42" x="0" y="0"/><use xlink:href="#L1_42" x="350" y="0"/><use xlink:href="#L1_42" x="-350" y="350"/><use xlink:href="#L1_42" x="0" y="350"/><use xlink:href="#L1_42" x="350" y="350"/></pattern><rect x="0" y="0" width="100%" height="100%" fill="url(#pattern_L1_42)"/></g><g fi:class="KUsePattern"><pattern id="pattern_L1_43" width="350" height="350" patternUnits="userSpaceOnUse"><use xlink:href="#L1_43" x="-350" y="-350"/><use xlink:href="#L1_43" x="0" y="-350"/><use xlink:href="#L1_43" x="350" y="-350"/><use xlink:href="#L1_43" x="-350" y="0"/><use xlink:href="#L1_43" x="0" y="0"/><use xlink:href="#L1_43" x="350" y="0"/><use xlink:href="#L1_43" x="-350" y="350"/><use xlink:href="#L1_43" x="0" y="350"/><use xlink:href="#L1_43" x="350" y="350"/></pattern><rect x="0" y="0" width="100%" height="100%" fill="url(#pattern_L1_43)"/></g><g fi:class="KUsePattern"><pattern id="pattern_L1_44" width="350" height="350" patternUnits="userSpaceOnUse"><use xlink:href="#L1_44" x="-350" y="-350"/><use xlink:href="#L1_44" x="0" y="-350"/><use xlink:href="#L1_44" x="350" y="-350"/><use xlink:href="#L1_44" x="-350" y="0"/><use xlink:href="#L1_44" x="0" y="0"/><use xlink:href="#L1_44" x="350" y="0"/><use xlink:href="#L1_44" x="-350" y="350"/><use xlink:href="#L1_44" x="0" y="350"/><use xlink:href="#L1_44" x="350" y="350"/></pattern><rect x="0" y="0" width="100%" height="100%" fill="url(#pattern_L1_44)"/></g><g fi:class="KUsePattern"><pattern id="pattern_L1_45" width="350" height="350" patternUnits="userSpaceOnUse"><use xlink:href="#L1_45" x="-350" y="-350"/><use xlink:href="#L1_45" x="0" y="-350"/><use xlink:href="#L1_45" x="350" y="-350"/><use xlink:href="#L1_45" x="-350" y="0"/><use xlink:href="#L1_45" x="0" y="0"/><use xlink:href="#L1_45" x="350" y="0"/><use xlink:href="#L1_45" x="-350" y="350"/><use xlink:href="#L1_45" x="0" y="350"/><use xlink:href="#L1_45" x="350" y="350"/></pattern><rect x="0" y="0" width="100%" height="100%" fill="url(#pattern_L1_45)"/></g></svg>